# xmcd
# 
# Track frame offsets:
#     150
#     18106
#     33646
#     52824
#     66240
#     85302
#     113668
#     136939
#     151468
#     166243
#     175370
#     212871
#     232709
# 
# Disc length: 3388
# 
# Revision: 1
# Processed by: cddbd v1.5.2PL0 Copyright (c) Steve Scherf et al.
# Submitted via: fre:ac v1.0.31
# 
DISCID=a10d3a0d
DTITLE=Rival Sons - Head Down
DYEAR=2012
DGENRE=Blues
TTITLE0=Keep On Swinging
TTITLE1=Wild Animal
TTITLE2=You Want To
TTITLE3=Until The Sun Comes
TTITLE4=Run From Revelation
TTITLE5=Jordan
TTITLE6=All The Way
TTITLE7=The Heist
TTITLE8=Three Fingers
TTITLE9=Nava
TTITLE10=Manifest Destiny Pt.1
TTITLE11=Manifest Destiny Pt.2
TTITLE12=True
EXTD=
EXTT0=
EXTT1=
EXTT2=
EXTT3=
EXTT4=
EXTT5=
EXTT6=
EXTT7=
EXTT8=
EXTT9=
EXTT10=
EXTT11=
EXTT12=
PLAYORDER=
